<?xml version="1.0" standalone="no"?>
<!DOCTYPE svg PUBLIC "-//W3C//DTD SVG 20010904//EN"
 "http://www.w3.org/TR/2001/REC-SVG-20010904/DTD/svg10.dtd">
<svg version="1.0" xmlns="http://www.w3.org/2000/svg"
 width="1200.000000pt" height="1200.000000pt" viewBox="0 0 1200.000000 1200.000000"
 preserveAspectRatio="xMidYMid meet">

<g transform="translate(0.000000,1200.000000) scale(0.100000,-0.100000)"
fill="#000000" stroke="none">
<path d="M0 6000 l0 -6000 6000 0 6000 0 0 6000 0 6000 -6000 0 -6000 0 0
-6000z m4535 2345 c89 -19 198 -19 400 0 88 8 191 15 228 15 88 0 208 -25 270
-57 117 -59 206 -197 249 -385 21 -92 21 -99 6 -131 -22 -47 -139 -123 -244
-159 -403 -139 -887 153 -1013 612 -19 69 -18 88 7 108 19 15 13 15 97 -3z
m1631 -201 c129 -58 138 -77 76 -153 -57 -68 -121 -165 -148 -225 -25 -55 -45
-141 -38 -161 3 -7 40 -15 93 -18 339 -24 671 -254 827 -572 77 -159 96 -242
101 -455 4 -158 2 -199 -15 -281 -86 -419 -419 -740 -841 -814 -108 -19 -315
-19 -424 0 -211 37 -397 134 -553 289 -208 209 -304 450 -304 766 0 208 36
360 124 526 129 243 349 423 614 504 l67 21 2 50 c4 116 89 313 191 441 66 82
106 118 132 118 10 0 53 -16 96 -36z m-798 -2836 c16 -16 17 -1275 1 -1311
-14 -32 -82 -69 -117 -65 l-27 3 -3 651 c-2 634 -2 652 18 676 20 26 74 57
101 58 8 0 20 -5 27 -12z m-619 -129 c120 -27 233 -121 266 -219 41 -123 37
-238 -13 -344 -53 -113 -134 -181 -255 -213 -53 -14 -69 -15 -79 -5 -10 10 1
25 55 73 94 85 119 137 125 255 6 124 -12 178 -78 237 -68 61 -134 79 -330 86
-174 7 -183 12 -133 71 54 65 71 70 243 70 85 0 175 -5 199 -11z m-303 -200
c11 -9 14 -56 14 -214 0 -112 3 -210 6 -219 5 -13 24 -16 105 -16 112 0 130
-11 89 -55 -41 -44 -115 -67 -231 -73 -158 -7 -149 -26 -149 302 0 276 0 277
45 289 29 8 106 -1 121 -14z m1305 -449 c4 -214 11 -359 18 -381 32 -102 164
-139 281 -79 46 24 60 20 60 -17 0 -39 -65 -98 -130 -117 -118 -35 -241 -15
-305 48 -73 74 -78 104 -83 471 -3 284 -2 324 13 351 20 37 81 75 115 72 l25
-3 6 -345z m561 312 c5 -18 8 -212 6 -430 -3 -442 -2 -433 -73 -466 -49 -23
-83 -21 -90 7 -3 12 -4 207 -3 434 l3 411 25 27 c29 32 77 56 104 52 13 -1 23
-13 28 -35z m378 19 c5 -11 10 -31 10 -45 0 -14 3 -26 7 -26 5 0 44 18 88 40
137 69 214 65 304 -16 27 -24 58 -44 70 -44 11 0 66 24 121 53 96 50 105 52
178 52 100 0 162 -29 209 -98 49 -74 55 -114 60 -442 4 -265 3 -303 -12 -330
-23 -42 -61 -68 -104 -69 l-36 -1 -6 305 c-4 180 -11 326 -18 357 -24 101 -82
153 -172 153 -64 0 -119 -21 -197 -77 -157 -109 -142 -108 -176 -21 -54 134
-199 130 -385 -11 -30 -22 -63 -41 -72 -41 -24 0 -34 53 -26 138 7 72 28 104
82 128 42 19 63 17 75 -5z m0 -280 c16 -31 13 -534 -4 -574 -16 -39 -54 -66
-102 -74 -30 -5 -35 -2 -44 21 -12 33 -13 452 -1 514 9 46 37 83 86 113 38 24
52 24 65 0z m518 -280 c2 -294 2 -294 -20 -319 -46 -48 -119 -69 -132 -36 -3
9 -6 130 -6 270 0 296 2 307 77 354 81 52 78 64 81 -269z m-2770 33 c21 -14
22 -22 22 -163 0 -135 -2 -151 -21 -175 -27 -35 -93 -68 -127 -64 l-27 3 -3
190 c-3 184 -2 191 19 208 27 22 106 23 137 1z"/>
<path d="M4842 8231 l-173 -16 103 -62 c152 -92 408 -208 408 -185 0 4 -21 69
-47 145 l-47 137 -35 -1 c-20 -1 -114 -9 -209 -18z"/>
<path d="M5202 8238 c3 -7 28 -81 57 -165 l53 -152 52 -11 c72 -16 207 -32
214 -26 7 8 -18 94 -48 161 -47 104 -107 158 -210 189 -66 20 -124 21 -118 4z"/>
<path d="M4601 8108 c12 -23 37 -66 57 -95 39 -59 35 -58 136 -29 l40 12 -59
33 c-33 19 -90 53 -128 77 l-67 44 21 -42z"/>
<path d="M4883 7897 c-45 -12 -84 -25 -88 -29 -9 -9 74 -64 158 -103 168 -79
359 -85 512 -16 l60 28 -85 12 c-113 17 -252 54 -362 96 -49 19 -95 35 -102
34 -6 0 -48 -11 -93 -22z"/>
<path d="M6043 8022 c-110 -133 -167 -250 -188 -390 l-7 -43 49 3 c34 2 47 7
45 17 -5 24 19 124 44 179 13 29 49 92 81 140 32 48 61 92 66 99 5 8 -3 18
-22 27 -29 16 -30 16 -68 -32z"/>
<path d="M5915 7483 c-291 -35 -505 -144 -660 -337 -99 -123 -158 -246 -190
-399 -21 -95 -20 -354 1 -455 74 -358 363 -645 722 -717 122 -25 406 -17 511
14 326 96 571 350 653 677 19 75 22 116 21 259 0 150 -3 182 -26 267 -71 268
-240 474 -494 601 -64 33 -197 77 -230 77 -6 0 11 -24 39 -52 119 -124 218
-293 273 -463 81 -249 85 -565 12 -820 -25 -87 -51 -114 -89 -94 -32 17 -32
37 -3 158 23 95 29 146 33 278 3 99 0 195 -8 244 -43 300 -204 580 -424 741
-39 28 -61 31 -141 21z m513 -1529 c26 -18 29 -60 5 -86 -30 -33 -84 -17 -98
29 -4 17 1 29 19 48 29 29 43 31 74 9z m-74 -170 c36 -35 12 -94 -38 -94 -38
0 -58 19 -58 55 0 14 5 32 12 40 16 20 64 19 84 -1z"/>
</g>
</svg>
